<svg xmlns="http://www.w3.org/2000/svg" width="580" height="370" viewBox="0 0 580 370"><defs>
<radialGradient id="nebula"><stop stop-color="#5924b6" stop-opacity=".65"/><stop offset=".5" stop-color="#281362" stop-opacity=".35"/><stop offset="1" stop-color="#070916" stop-opacity="0"/></radialGradient>
<radialGradient id="cyan"><stop stop-color="#00a9c5" stop-opacity=".25"/><stop offset="1" stop-color="#070916" stop-opacity="0"/></radialGradient>
<radialGradient id="core"><stop stop-color="#070816"/><stop offset=".78" stop-color="#0f0b29"/><stop offset="1" stop-color="#4b287c"/></radialGradient>
<linearGradient id="chrome" x2=".25" y2="1"><stop stop-color="#fff"/><stop offset=".49" stop-color="#e1e0ff"/><stop offset=".5" stop-color="#af9cea"/><stop offset="1" stop-color="#f1eaff"/></linearGradient>
<linearGradient id="stroke"><stop stop-color="#69f7e9"/><stop offset=".5" stop-color="#a586ff"/><stop offset="1" stop-color="#ff85db"/></linearGradient>
<pattern id="grid" width="48" height="48" patternUnits="userSpaceOnUse"><path d="M48 0H0V48" fill="none" stroke="#8673b6" opacity=".055"/></pattern>
</defs><style>text{font-family:Arial,Helvetica,sans-serif}text[font-family]{font-family:DejaVu Sans Mono,monospace}</style><rect width="580" height="370" rx="22" fill="#070916"/><rect width="580" height="370" rx="22" fill="url(#grid)"/><circle cx="0.00" cy="0.00" r="1.7" fill="#91f8ff" opacity="0.40"/><circle cx="127.43" cy="73.83" r="0.7" fill="#ae9fcf" opacity="0.52"/><circle cx="254.86" cy="147.66" r="0.7" fill="#ae9fcf" opacity="0.61"/><circle cx="382.29" cy="221.49" r="0.7" fill="#91f8ff" opacity="0.65"/><circle cx="509.72" cy="295.32" r="0.7" fill="#ae9fcf" opacity="0.63"/><circle cx="57.15" cy="369.15" r="0.7" fill="#ae9fcf" opacity="0.55"/><circle cx="184.58" cy="72.98" r="0.7" fill="#91f8ff" opacity="0.44"/><circle cx="312.01" cy="146.81" r="0.7" fill="#ae9fcf" opacity="0.32"/><circle cx="439.44" cy="220.64" r="0.7" fill="#ae9fcf" opacity="0.22"/><circle cx="566.87" cy="294.47" r="1.7" fill="#91f8ff" opacity="0.16"/><circle cx="114.30" cy="368.30" r="0.7" fill="#ae9fcf" opacity="0.16"/><circle cx="241.73" cy="72.13" r="0.7" fill="#ae9fcf" opacity="0.22"/><circle cx="369.16" cy="145.96" r="0.7" fill="#91f8ff" opacity="0.32"/><circle cx="496.59" cy="219.79" r="0.7" fill="#ae9fcf" opacity="0.44"/><circle cx="44.02" cy="293.62" r="0.7" fill="#ae9fcf" opacity="0.56"/><circle cx="171.45" cy="367.45" r="0.7" fill="#91f8ff" opacity="0.63"/><circle cx="298.88" cy="71.28" r="0.7" fill="#ae9fcf" opacity="0.65"/><circle cx="426.31" cy="145.11" r="0.7" fill="#ae9fcf" opacity="0.61"/><circle cx="553.74" cy="218.94" r="1.7" fill="#91f8ff" opacity="0.52"/><circle cx="101.17" cy="292.77" r="0.7" fill="#ae9fcf" opacity="0.40"/><circle cx="228.60" cy="366.60" r="0.7" fill="#ae9fcf" opacity="0.28"/><circle cx="356.03" cy="70.43" r="0.7" fill="#91f8ff" opacity="0.19"/><circle cx="483.46" cy="144.26" r="0.7" fill="#ae9fcf" opacity="0.15"/><circle cx="30.89" cy="218.09" r="0.7" fill="#ae9fcf" opacity="0.17"/><circle cx="158.32" cy="291.92" r="0.7" fill="#91f8ff" opacity="0.25"/><circle cx="285.75" cy="365.75" r="0.7" fill="#ae9fcf" opacity="0.36"/><circle cx="413.18" cy="69.58" r="0.7" fill="#ae9fcf" opacity="0.49"/><circle cx="540.61" cy="143.41" r="1.7" fill="#91f8ff" opacity="0.59"/><circle cx="88.04" cy="217.24" r="0.7" fill="#ae9fcf" opacity="0.64"/><circle cx="215.47" cy="291.07" r="0.7" fill="#ae9fcf" opacity="0.64"/><circle cx="342.90" cy="364.90" r="0.7" fill="#91f8ff" opacity="0.58"/><circle cx="470.33" cy="68.73" r="0.7" fill="#ae9fcf" opacity="0.48"/><circle cx="17.76" cy="142.56" r="0.7" fill="#ae9fcf" opacity="0.35"/><circle cx="145.19" cy="216.39" r="0.7" fill="#91f8ff" opacity="0.24"/><circle cx="272.62" cy="290.22" r="0.7" fill="#ae9fcf" opacity="0.17"/><ellipse cx="420" cy="128" rx="180" ry="150" fill="url(#cyan)"/><path d="M515 104L515 104" stroke="#64c9b9" stroke-width=".8" opacity=".25"/><path d="M515 104L341.4596374480472 70.52000000000002" stroke="#64c9b9" stroke-width=".8" opacity=".25"/><path d="M515 104L450.00000000000006 180.91814428058856" stroke="#64c9b9" stroke-width=".8" opacity=".25"/><path d="M515 104L422 105.68" stroke="#64c9b9" stroke-width=".8" opacity=".25"/><circle cx="515.00" cy="104.00" r="4" fill="#76efdb" opacity="0.8"/><path d="M502.5403625519528 137.48L329 104.00000000000001" stroke="#64c9b9" stroke-width=".8" opacity=".25"/><path d="M502.5403625519528 137.48L470.4974226119286 166.16" stroke="#64c9b9" stroke-width=".8" opacity=".25"/><path d="M502.5403625519528 137.48L394 111.08185571941144" stroke="#64c9b9" stroke-width=".8" opacity=".25"/><circle cx="502.54" cy="137.48" r="2" fill="#76efdb" opacity="0.8"/><path d="M468.5 161.989061037406L341.4596374480472 137.48" stroke="#64c9b9" stroke-width=".8" opacity=".25"/><path d="M468.5 161.989061037406L478 146" stroke="#64c9b9" stroke-width=".8" opacity=".25"/><path d="M468.5 161.989061037406L373.5025773880714 125.84000000000003" stroke="#64c9b9" stroke-width=".8" opacity=".25"/><circle cx="468.50" cy="161.99" r="2" fill="#76efdb" opacity="0.8"/><path d="M422 170.95999999999998L375.5 161.989061037406" stroke="#64c9b9" stroke-width=".8" opacity=".25"/><path d="M422 170.95999999999998L502.54036255195274 70.51999999999997" stroke="#64c9b9" stroke-width=".8" opacity=".25"/><path d="M422 170.95999999999998L366 146" stroke="#64c9b9" stroke-width=".8" opacity=".25"/><circle cx="422.00" cy="170.96" r="2" fill="#76efdb" opacity="0.8"/><path d="M375.5 161.989061037406L422 170.95999999999998" stroke="#64c9b9" stroke-width=".8" opacity=".25"/><path d="M375.5 161.989061037406L468.5 46.010938962594" stroke="#64c9b9" stroke-width=".8" opacity=".25"/><path d="M375.5 161.989061037406L373.5025773880714 166.16" stroke="#64c9b9" stroke-width=".8" opacity=".25"/><circle cx="375.50" cy="161.99" r="4" fill="#76efdb" opacity="0.8"/><path d="M341.4596374480472 137.48L468.5 161.989061037406" stroke="#64c9b9" stroke-width=".8" opacity=".25"/><path d="M341.4596374480472 137.48L422 37.040000000000006" stroke="#64c9b9" stroke-width=".8" opacity=".25"/><path d="M341.4596374480472 137.48L394.00000000000006 180.9181442805886" stroke="#64c9b9" stroke-width=".8" opacity=".25"/><path d="M341.4596374480472 137.48L470.4974226119285 125.83999999999995" stroke="#64c9b9" stroke-width=".8" opacity=".25"/><circle cx="341.46" cy="137.48" r="2" fill="#76efdb" opacity="0.8"/><path d="M329 104.00000000000001L502.5403625519528 137.48" stroke="#64c9b9" stroke-width=".8" opacity=".25"/><path d="M329 104.00000000000001L375.49999999999994 46.010938962594" stroke="#64c9b9" stroke-width=".8" opacity=".25"/><path d="M329 104.00000000000001L422.00000000000006 186.32" stroke="#64c9b9" stroke-width=".8" opacity=".25"/><path d="M329 104.00000000000001L449.99999999999994 111.08185571941141" stroke="#64c9b9" stroke-width=".8" opacity=".25"/><circle cx="329.00" cy="104.00" r="2" fill="#76efdb" opacity="0.8"/><path d="M341.4596374480472 70.52000000000002L515 104" stroke="#64c9b9" stroke-width=".8" opacity=".25"/><path d="M341.4596374480472 70.52000000000002L341.4596374480472 70.52000000000002" stroke="#64c9b9" stroke-width=".8" opacity=".25"/><path d="M341.4596374480472 70.52000000000002L450.00000000000006 180.91814428058856" stroke="#64c9b9" stroke-width=".8" opacity=".25"/><path d="M341.4596374480472 70.52000000000002L422 105.68" stroke="#64c9b9" stroke-width=".8" opacity=".25"/><circle cx="341.46" cy="70.52" r="2" fill="#76efdb" opacity="0.8"/><path d="M375.49999999999994 46.010938962594L329 104.00000000000001" stroke="#64c9b9" stroke-width=".8" opacity=".25"/><path d="M375.49999999999994 46.010938962594L470.4974226119286 166.16" stroke="#64c9b9" stroke-width=".8" opacity=".25"/><path d="M375.49999999999994 46.010938962594L394 111.08185571941144" stroke="#64c9b9" stroke-width=".8" opacity=".25"/><circle cx="375.50" cy="46.01" r="4" fill="#76efdb" opacity="0.8"/><path d="M422 37.040000000000006L341.4596374480472 137.48" stroke="#64c9b9" stroke-width=".8" opacity=".25"/><path d="M422 37.040000000000006L478 146" stroke="#64c9b9" stroke-width=".8" opacity=".25"/><path d="M422 37.040000000000006L373.5025773880714 125.84000000000003" stroke="#64c9b9" stroke-width=".8" opacity=".25"/><circle cx="422.00" cy="37.04" r="2" fill="#76efdb" opacity="0.8"/><path d="M468.5 46.010938962594L375.5 161.989061037406" stroke="#64c9b9" stroke-width=".8" opacity=".25"/><path d="M468.5 46.010938962594L502.54036255195274 70.51999999999997" stroke="#64c9b9" stroke-width=".8" opacity=".25"/><path d="M468.5 46.010938962594L366 146" stroke="#64c9b9" stroke-width=".8" opacity=".25"/><circle cx="468.50" cy="46.01" r="2" fill="#76efdb" opacity="0.8"/><path d="M502.54036255195274 70.51999999999997L422 170.95999999999998" stroke="#64c9b9" stroke-width=".8" opacity=".25"/><path d="M502.54036255195274 70.51999999999997L468.5 46.010938962594" stroke="#64c9b9" stroke-width=".8" opacity=".25"/><path d="M502.54036255195274 70.51999999999997L373.5025773880714 166.16" stroke="#64c9b9" stroke-width=".8" opacity=".25"/><circle cx="502.54" cy="70.52" r="2" fill="#76efdb" opacity="0.8"/><path d="M478 146L468.5 161.989061037406" stroke="#64c9b9" stroke-width=".8" opacity=".25"/><path d="M478 146L422 37.040000000000006" stroke="#64c9b9" stroke-width=".8" opacity=".25"/><path d="M478 146L394.00000000000006 180.9181442805886" stroke="#64c9b9" stroke-width=".8" opacity=".25"/><path d="M478 146L470.4974226119285 125.83999999999995" stroke="#64c9b9" stroke-width=".8" opacity=".25"/><circle cx="478.00" cy="146.00" r="4" fill="#76efdb" opacity="0.8"/><path d="M470.4974226119286 166.16L502.5403625519528 137.48" stroke="#64c9b9" stroke-width=".8" opacity=".25"/><path d="M470.4974226119286 166.16L375.49999999999994 46.010938962594" stroke="#64c9b9" stroke-width=".8" opacity=".25"/><path d="M470.4974226119286 166.16L422.00000000000006 186.32" stroke="#64c9b9" stroke-width=".8" opacity=".25"/><path d="M470.4974226119286 166.16L449.99999999999994 111.08185571941141" stroke="#64c9b9" stroke-width=".8" opacity=".25"/><circle cx="470.50" cy="166.16" r="2" fill="#76efdb" opacity="0.8"/><path d="M450.00000000000006 180.91814428058856L515 104" stroke="#64c9b9" stroke-width=".8" opacity=".25"/><path d="M450.00000000000006 180.91814428058856L341.4596374480472 70.52000000000002" stroke="#64c9b9" stroke-width=".8" opacity=".25"/><path d="M450.00000000000006 180.91814428058856L450.00000000000006 180.91814428058856" stroke="#64c9b9" stroke-width=".8" opacity=".25"/><path d="M450.00000000000006 180.91814428058856L422 105.68" stroke="#64c9b9" stroke-width=".8" opacity=".25"/><circle cx="450.00" cy="180.92" r="2" fill="#76efdb" opacity="0.8"/><path d="M422.00000000000006 186.32L329 104.00000000000001" stroke="#64c9b9" stroke-width=".8" opacity=".25"/><path d="M422.00000000000006 186.32L470.4974226119286 166.16" stroke="#64c9b9" stroke-width=".8" opacity=".25"/><path d="M422.00000000000006 186.32L394 111.08185571941144" stroke="#64c9b9" stroke-width=".8" opacity=".25"/><circle cx="422.00" cy="186.32" r="2" fill="#76efdb" opacity="0.8"/><path d="M394.00000000000006 180.9181442805886L341.4596374480472 137.48" stroke="#64c9b9" stroke-width=".8" opacity=".25"/><path d="M394.00000000000006 180.9181442805886L478 146" stroke="#64c9b9" stroke-width=".8" opacity=".25"/><path d="M394.00000000000006 180.9181442805886L373.5025773880714 125.84000000000003" stroke="#64c9b9" stroke-width=".8" opacity=".25"/><circle cx="394.00" cy="180.92" r="4" fill="#76efdb" opacity="0.8"/><path d="M373.5025773880714 166.16L375.5 161.989061037406" stroke="#64c9b9" stroke-width=".8" opacity=".25"/><path d="M373.5025773880714 166.16L502.54036255195274 70.51999999999997" stroke="#64c9b9" stroke-width=".8" opacity=".25"/><path d="M373.5025773880714 166.16L366 146" stroke="#64c9b9" stroke-width=".8" opacity=".25"/><circle cx="373.50" cy="166.16" r="2" fill="#76efdb" opacity="0.8"/><path d="M366 146L422 170.95999999999998" stroke="#64c9b9" stroke-width=".8" opacity=".25"/><path d="M366 146L468.5 46.010938962594" stroke="#64c9b9" stroke-width=".8" opacity=".25"/><path d="M366 146L373.5025773880714 166.16" stroke="#64c9b9" stroke-width=".8" opacity=".25"/><circle cx="366.00" cy="146.00" r="2" fill="#76efdb" opacity="0.8"/><path d="M373.5025773880714 125.84000000000003L468.5 161.989061037406" stroke="#64c9b9" stroke-width=".8" opacity=".25"/><path d="M373.5025773880714 125.84000000000003L422 37.040000000000006" stroke="#64c9b9" stroke-width=".8" opacity=".25"/><path d="M373.5025773880714 125.84000000000003L394.00000000000006 180.9181442805886" stroke="#64c9b9" stroke-width=".8" opacity=".25"/><path d="M373.5025773880714 125.84000000000003L470.4974226119285 125.83999999999995" stroke="#64c9b9" stroke-width=".8" opacity=".25"/><circle cx="373.50" cy="125.84" r="2" fill="#76efdb" opacity="0.8"/><path d="M394 111.08185571941144L502.5403625519528 137.48" stroke="#64c9b9" stroke-width=".8" opacity=".25"/><path d="M394 111.08185571941144L375.49999999999994 46.010938962594" stroke="#64c9b9" stroke-width=".8" opacity=".25"/><path d="M394 111.08185571941144L422.00000000000006 186.32" stroke="#64c9b9" stroke-width=".8" opacity=".25"/><path d="M394 111.08185571941144L449.99999999999994 111.08185571941141" stroke="#64c9b9" stroke-width=".8" opacity=".25"/><circle cx="394.00" cy="111.08" r="4" fill="#76efdb" opacity="0.8"/><path d="M422 105.68L515 104" stroke="#64c9b9" stroke-width=".8" opacity=".25"/><path d="M422 105.68L341.4596374480472 70.52000000000002" stroke="#64c9b9" stroke-width=".8" opacity=".25"/><path d="M422 105.68L450.00000000000006 180.91814428058856" stroke="#64c9b9" stroke-width=".8" opacity=".25"/><path d="M422 105.68L422 105.68" stroke="#64c9b9" stroke-width=".8" opacity=".25"/><circle cx="422.00" cy="105.68" r="2" fill="#76efdb" opacity="0.8"/><path d="M449.99999999999994 111.08185571941141L329 104.00000000000001" stroke="#64c9b9" stroke-width=".8" opacity=".25"/><path d="M449.99999999999994 111.08185571941141L470.4974226119286 166.16" stroke="#64c9b9" stroke-width=".8" opacity=".25"/><path d="M449.99999999999994 111.08185571941141L394 111.08185571941144" stroke="#64c9b9" stroke-width=".8" opacity=".25"/><circle cx="450.00" cy="111.08" r="2" fill="#76efdb" opacity="0.8"/><path d="M470.4974226119285 125.83999999999995L341.4596374480472 137.48" stroke="#64c9b9" stroke-width=".8" opacity=".25"/><path d="M470.4974226119285 125.83999999999995L478 146" stroke="#64c9b9" stroke-width=".8" opacity=".25"/><path d="M470.4974226119285 125.83999999999995L373.5025773880714 125.84000000000003" stroke="#64c9b9" stroke-width=".8" opacity=".25"/><circle cx="470.50" cy="125.84" r="2" fill="#76efdb" opacity="0.8"/><text x="28" y="40" fill="#76efdb" font-size="12" font-weight="500" font-family="DejaVu Sans Mono,monospace">BUILD LOG / 02</text><text x="28" y="91" fill="#443454" font-size="60" font-weight="700" >02</text><text x="28" y="248" fill="#efebfa" font-size="34" font-weight="700" letter-spacing="-1">comrade-learn-ai</text><text x="29" y="280" fill="#a497ba" font-size="16" font-weight="400" >Open the repository. Explore the work.</text><path d="M28 305H552" stroke="#312646"/><text x="28" y="341" fill="#76efdb" font-size="12" font-weight="500" font-family="DejaVu Sans Mono,monospace">VIEW SOURCE</text><text x="546" y="345" fill="#76efdb" font-size="25" font-weight="400" text-anchor="end">↗</text><rect x=".75" y=".75" width="578.5" height="368.5" rx="22" fill="none" stroke="#695698" stroke-opacity=".4"/></svg>